<svg
  width="31"
  height="31"
  viewBox="0 0 31 31"
  fill="none"
  xmlns="http://www.w3.org/2000/svg"
>
  <path
    d="M27.125 6.85C27.125 4.69915 25.3871 2.95 23.25 2.95C21.1129 2.95 19.375 4.69915 19.375 6.85C19.375 8.28715 20.1597 9.53125 21.3125 10.2079V10.75C21.3125 11.8244 20.4445 12.7 19.375 12.7H14.5312C12.7391 12.7 11.0747 13.2499 9.6875 14.1859V8.2579C10.8403 7.58125 11.625 6.33715 11.625 4.9C11.625 2.74915 9.88706 1 7.75 1C5.61294 1 3.875 2.74915 3.875 4.9C3.875 6.33715 4.65969 7.58125 5.8125 8.2579V21.0421C4.65969 21.7187 3.875 22.9628 3.875 24.4C3.875 26.5508 5.61294 28.3 7.75 28.3C9.88706 28.3 11.625 26.5508 11.625 24.4C11.625 22.9804 10.8597 21.748 9.72819 21.0655C9.93937 18.5714 12.0009 16.6 14.5312 16.6H19.375C22.5796 16.6 25.1875 13.9753 25.1875 10.75V10.2079C26.3403 9.53125 27.125 8.28715 27.125 6.85ZM7.75 2.95C8.81756 2.95 9.6875 3.82555 9.6875 4.9C9.6875 5.97445 8.81756 6.85 7.75 6.85C6.68244 6.85 5.8125 5.97445 5.8125 4.9C5.8125 3.82555 6.68244 2.95 7.75 2.95ZM7.75 26.35C6.68244 26.35 5.8125 25.4764 5.8125 24.4C5.8125 23.3236 6.68244 22.45 7.75 22.45C8.81756 22.45 9.6875 23.3236 9.6875 24.4C9.6875 25.4764 8.81756 26.35 7.75 26.35ZM23.25 8.8C22.1805 8.8 21.3125 7.92445 21.3125 6.85C21.3125 5.77555 22.1805 4.9 23.25 4.9C24.3195 4.9 25.1875 5.77555 25.1875 6.85C25.1875 7.92445 24.3195 8.8 23.25 8.8Z"
    fill="white"
  />
</svg>